<svg width="21" height="20" viewBox="0 0 21 20" fill="none" xmlns="http://www.w3.org/2000/svg">
<path d="M18.8333 7.1875C18.1562 7.29167 17.6875 7.96875 17.8437 8.64583C17.9479 9.0625 17.9479 9.53125 17.9479 10C17.9479 14.1146 14.6146 17.5 10.4479 17.5C6.28125 17.5 3 14.1146 3 10C3 5.88542 6.33333 2.5 10.5 2.5C11.4896 2.5 12.4792 2.70833 13.4167 3.07292C14.0417 3.33333 14.7708 3.02083 15.0312 2.39583C15.2917 1.77083 14.9792 1.04167 14.3542 0.78125C13.1042 0.260417 11.8021 0 10.4479 0C4.97917 0 0.5 4.47917 0.5 10C0.5 15.5208 4.97917 20 10.5 20C16.0208 20 20.5 15.5208 20.5 10C20.5 9.375 20.4479 8.75 20.3437 8.17708C20.1354 7.5 19.5104 7.03125 18.8333 7.1875Z" fill="#0B1E51"/>
<path d="M8.15629 7.65635C7.27087 6.35427 5.08337 7.60427 6.02087 8.90635C7.21879 10.6251 8.31254 12.448 9.51045 14.1668C10.0313 14.948 11.125 15.0001 11.6459 14.1668C13.8334 10.573 16.1771 7.13552 19.0938 4.0626C20.1875 2.91677 18.4167 1.14593 17.323 2.29177C14.7188 5.0001 12.5313 8.07302 10.5 11.2501C9.77087 10.0522 8.98962 8.85427 8.15629 7.65635Z" fill="#0B1E51"/>
</svg>
