<svg width="17" height="21" viewBox="0 0 17 21" fill="none" xmlns="http://www.w3.org/2000/svg">
<path d="M2.48894 19.2414C2.48894 19.668 2.83565 20.0147 3.2623 20.0147H13.4457C13.8719 20.0147 14.2191 19.668 14.2182 19.2637L14.9924 5.83567H15.9671C16.1809 5.83567 16.354 5.66252 16.354 5.44919V3.32254C16.354 3.1088 16.1809 2.93565 15.9671 2.93565H11.4479V1.72734C11.4479 1.30069 11.1008 0.953979 10.6745 0.953979H6.03391C5.60767 0.953979 5.26054 1.30069 5.26054 1.72734V2.93565H0.740894C0.527152 2.93565 0.354004 3.1088 0.354004 3.32254V5.4496C0.354004 5.66293 0.527152 5.83608 0.740894 5.83608H1.71806C1.71806 5.84395 1.71599 5.85099 1.71599 5.85845L2.48894 19.2414ZM13.4461 19.2414L3.26189 19.2194L2.48894 5.83608H14.2182L13.4461 19.2414ZM6.03391 1.72734H10.6745V2.93565H6.03391V1.72734ZM1.12778 5.06271V3.70902H5.64743H11.0614H15.5806V5.06271H14.2195H2.48894H1.12778V5.06271Z" fill="#0B1E51"/>
<path d="M5.21209 17.7269C5.42583 17.7269 5.59898 17.5537 5.59898 17.34V7.81768C5.59898 7.60393 5.42583 7.43079 5.21209 7.43079C4.99834 7.43079 4.8252 7.60393 4.8252 7.81768V17.34C4.8252 17.5537 4.99834 17.7269 5.21209 17.7269Z" fill="#0B1E51"/>
<path d="M8.35402 17.7269C8.56735 17.7269 8.74091 17.5537 8.74091 17.34V7.81768C8.74091 7.60393 8.56776 7.43079 8.35402 7.43079C8.14028 7.43079 7.96713 7.60393 7.96713 7.81768V17.34C7.96713 17.5537 8.14069 17.7269 8.35402 17.7269Z" fill="#0B1E51"/>
<path d="M11.4959 17.7269C11.7093 17.7269 11.8828 17.5537 11.8828 17.34V7.81768C11.8828 7.60393 11.7093 7.43079 11.4959 7.43079C11.2826 7.43079 11.109 7.60393 11.109 7.81768V17.34C11.109 17.5537 11.2826 17.7269 11.4959 17.7269Z" fill="#0B1E51"/>
</svg>
